<svg xmlns="http://www.w3.org/2000/svg" viewBox="0 0 200 200" width="200" height="200" role="img" aria-labelledby="title desc">
  <title id="title">Stopwatch icon</title>
  <desc id="desc">A semi-realistic, slightly cartoony stopwatch with soft shadows and highlights.</desc>

  <defs>
    <!-- Case gradient -->
    <linearGradient id="caseGrad" x1="0" x2="1">
      <stop offset="0" stop-color="#f7fafc"/>
      <stop offset="1" stop-color="#dfe7ec"/>
    </linearGradient>

    <!-- Edge shading -->
    <radialGradient id="rimGrad" cx="35%" cy="25%" r="80%">
      <stop offset="0" stop-color="#ffffff" stop-opacity="0.9"/>
      <stop offset="1" stop-color="#c7d2da" stop-opacity="1"/>
    </radialGradient>

    <!-- Dial gradient -->
    <radialGradient id="dialGrad" cx="50%" cy="40%" r="70%">
      <stop offset="0" stop-color="#ffffff"/>
      <stop offset="1" stop-color="#eef3f6"/>
    </radialGradient>

    <!-- Glass highlight -->
    <linearGradient id="gloss" x1="0" y1="0" x2="0" y2="1">
      <stop offset="0" stop-color="#ffffff" stop-opacity="0.65"/>
      <stop offset="1" stop-color="#ffffff" stop-opacity="0.05"/>
    </linearGradient>

    <!-- Button gradient (kept for crown/top button) -->
    <linearGradient id="btnGrad" x1="0" x2="1">
      <stop offset="0" stop-color="#f8fafc"/>
      <stop offset="1" stop-color="#d1dbe2"/>
    </linearGradient>

    <!-- Small shadow filter -->
    <filter id="softShadow" x="-50%" y="-50%" width="200%" height="200%">
      <feOffset in="SourceAlpha" dx="0" dy="4" result="off"/>
      <feGaussianBlur in="off" stdDeviation="6" result="blur"/>
      <feColorMatrix in="blur" type="matrix"
        values="0 0 0 0 0
                0 0 0 0 0
                0 0 0 0 0
                0 0 0 0.15"/>
      <feBlend in="SourceGraphic" in2="blur" mode="normal"/>
    </filter>

    <!-- Inner subtle shadow -->
    <filter id="innerShadow">
      <feOffset dy="2" />
      <feGaussianBlur stdDeviation="2" result="s" />
      <feComposite in2="SourceAlpha" operator="arithmetic" k2="-1" k3="1" />
      <feColorMatrix type="matrix" values="0 0 0 0 0
                                           0 0 0 0 0
                                           0 0 0 0 0
                                           0 0 0 0.06"/>
      <feBlend mode="multiply" in="SourceGraphic" />
    </filter>
  </defs>

  <!-- Soft drop shadow for the whole stopwatch -->
  <g filter="url(#softShadow)">
    <!-- Outer case -->
    <circle cx="100" cy="100" r="72" fill="url(#caseGrad)" stroke="#bfcad1" stroke-width="4" />

    <!-- Thin metal rim (slightly inset) -->
    <circle cx="100" cy="100" r="63" fill="url(#rimGrad)" stroke="#9eaab0" stroke-width="2" />

    <!-- Main dial -->
    <circle cx="100" cy="100" r="56" fill="url(#dialGrad)" stroke="#cfd8de" stroke-width="2" filter="url(#innerShadow)"/>
  </g>

  <!-- Top loop / crown -->
  <g transform="translate(0, -6)">
    <rect x="86" y="10" rx="8" ry="8" width="28" height="22" fill="url(#btnGrad)" stroke="#bfcad1" stroke-width="2"/>
    <!-- crown detail -->
    <rect x="94" y="6" rx="3" ry="3" width="12" height="10" fill="#f1f5f8" stroke="#c8d3da" stroke-width="1.2"/>
  </g>

  <!-- Gloss highlight on case -->
  <path d="M36 54 C48 26, 152 22, 164 54 C170 70, 140 92, 106 94 C78 95, 52 84, 36 54 Z" fill="url(#gloss)" opacity="0.45"/>

  <!-- Tick marks (12 major marks) -->
  <g stroke="#6b7280" stroke-linecap="round" transform="translate(0,0)" opacity="0.95">
    <line x1="100" y1="36" x2="100" y2="48" stroke-width="3" transform="rotate(0 100 100)"/>
    <line x1="100" y1="36" x2="100" y2="48" stroke-width="2" transform="rotate(30 100 100)"/>
    <line x1="100" y1="36" x2="100" y2="48" stroke-width="3" transform="rotate(60 100 100)"/>
    <line x1="100" y1="36" x2="100" y2="48" stroke-width="2" transform="rotate(90 100 100)"/>
    <line x1="100" y1="36" x2="100" y2="48" stroke-width="3" transform="rotate(120 100 100)"/>
    <line x1="100" y1="36" x2="100" y2="48" stroke-width="2" transform="rotate(150 100 100)"/>
    <line x1="100" y1="36" x2="100" y2="48" stroke-width="3" transform="rotate(180 100 100)"/>
    <line x1="100" y1="36" x2="100" y2="48" stroke-width="2" transform="rotate(210 100 100)"/>
    <line x1="100" y1="36" x2="100" y2="48" stroke-width="3" transform="rotate(240 100 100)"/>
    <line x1="100" y1="36" x2="100" y2="48" stroke-width="2" transform="rotate(270 100 100)"/>
    <line x1="100" y1="36" x2="100" y2="48" stroke-width="3" transform="rotate(300 100 100)"/>
    <line x1="100" y1="36" x2="100" y2="48" stroke-width="2" transform="rotate(330 100 100)"/>
  </g>

  <!-- Small sub-dial (chronograph indicator) -->
  <g transform="translate(0,0)">
    <circle cx="100" cy="132" r="12" fill="#ffffff" stroke="#cbd6dd" stroke-width="1.2"/>
    <!-- tiny hand in subdial -->
    <line x1="100" y1="132" x2="100" y2="122" stroke="#475569" stroke-width="1.8" stroke-linecap="round" transform="rotate(-30 100 132)"/>
  </g>

  <!-- Hands group (center at 100,100) -->
  <g stroke-linecap="round" stroke-linejoin="round">
    <!-- minute hand (shorter, thicker) -->
    <g transform="rotate(-40 100 100)">
      <path d="M100 100 L100 60" stroke="#0f172a" stroke-width="5" stroke-linecap="round" stroke-opacity="0.95"/>
      <!-- minute hand inner accent -->
      <path d="M100 100 L100 70" stroke="#ffffff" stroke-width="1.2" opacity="0.12" stroke-linecap="round"/>
    </g>

    <!-- second hand (long, thin, cartoony tip; counterweight removed) -->
    <g transform="rotate(60 100 100)">
      <line x1="100" y1="100" x2="100" y2="46" stroke="#ef4444" stroke-width="2.4"/>
      <!-- triangular tip -->
      <path d="M100 44 L98 52 L102 52 Z" fill="#ef4444" stroke="none" opacity="0.9"/>
    </g>
  </g>

  <!-- Center cap -->
  <circle cx="100" cy="100" r="6.5" fill="#0b1720" stroke="#ffffff" stroke-width="1.5" opacity="0.95"/>
</svg>

